<svg width="56" height="56" viewBox="0 0 56 56" fill="none" xmlns="http://www.w3.org/2000/svg">
<path fill-rule="evenodd" clip-rule="evenodd" d="M28 56C43.464 56 56 43.464 56 28C56 12.536 43.464 0 28 0C12.536 0 0 12.536 0 28C0 43.464 12.536 56 28 56Z" fill="#de6509"/>
<path fill-rule="evenodd" clip-rule="evenodd" d="M17.4229 25.6247C18.843 20.1998 23.9894 16.6066 29.5714 17.1427C35.4775 17.8421 39.9101 22.8756 39.8572 28.8227V29.5998C39.8734 30.7687 39.4012 31.8912 38.5543 32.697C37.6728 33.5655 36.4472 33.9911 35.2172 33.8559C33.9871 33.7207 32.8832 33.0391 32.2114 31.9998C30.5966 34.213 27.6564 34.9995 25.1523 33.888C22.6482 32.7766 21.259 30.0685 21.817 27.3863C22.375 24.704 24.729 22.7747 27.4686 22.7541C28.9296 22.7506 30.3364 23.3068 31.4 24.3084C31.4751 23.7358 31.9654 23.3092 32.5429 23.3141C33.174 23.3141 33.6857 23.8258 33.6857 24.457V29.3941C33.6432 30.4853 34.4517 31.4235 35.5371 31.5427C36.0672 31.5644 36.5833 31.3697 36.9669 31.0033C37.3506 30.6369 37.5688 30.1303 37.5714 29.5998V28.8227C37.6325 24.0361 34.0638 19.9788 29.3086 19.4284C25.2406 19.0547 21.4184 21.4249 19.9448 25.235C18.4713 29.045 19.7041 33.3703 22.9649 35.831C26.2257 38.2917 30.7232 38.2906 33.9829 35.8284C34.2247 35.6417 34.5312 35.5596 34.8339 35.6004C35.1367 35.6412 35.4105 35.8015 35.5943 36.0455C35.9755 36.5475 35.8784 37.2633 35.3771 37.6455C33.3826 39.1726 30.9406 40 28.4286 39.9998C26.8507 39.9715 25.2951 39.6215 23.8572 38.9713C18.7284 36.7035 16.0028 31.0496 17.4229 25.6247ZM23.96 28.5713C23.96 30.5216 25.5411 32.1027 27.4914 32.1027C29.4392 32.0964 31.0166 30.519 31.0229 28.5713C31.0229 26.6209 29.4418 25.0398 27.4914 25.0398C25.5411 25.0398 23.96 26.6209 23.96 28.5713Z" fill="#ffffff"/>
</svg>