<svg xmlns="http://www.w3.org/2000/svg" xmlns:xlink="http://www.w3.org/1999/xlink" version="1.1" id="Layer_1" x="0px" y="0px" viewBox="0 0 40 40" style="enable-background:new 0 0 40 40;" xml:space="preserve">
<style type="text/css">
	.st0{fill:#black;}
	.st1{fill-rule:evenodd;clip-rule:evenodd;fill:#FFFFFF;}
</style>
<circle class="st0" cx="20" cy="20" r="20" fill="#de6509"/>
<path class="st1" d="M12.7,18.2c0-4,3.3-7.3,7.4-7.3s7.4,3.3,7.4,7.3c0,5.1-6.5,10.7-6.8,10.9c-0.2,0.1-0.4,0.2-0.6,0.2  s-0.4-0.1-0.6-0.2C19.2,28.9,12.7,23.2,12.7,18.2z M20.1,21c-1.8,0-3.2-1.5-3.2-3.2c0-1.8,1.5-3.2,3.2-3.2c1.8,0,3.2,1.5,3.2,3.2  C23.3,19.6,21.9,21,20.1,21z M20.1,16.4c-0.8,0-1.4,0.6-1.4,1.4s0.6,1.4,1.4,1.4s1.4-0.6,1.4-1.4S20.9,16.4,20.1,16.4z" fill="#de6509"/>
</svg>