<svg xmlns="http://www.w3.org/2000/svg" xmlns:xlink="http://www.w3.org/1999/xlink" version="1.1" id="Layer_1" x="0px" y="0px" viewBox="0 0 40 40" style="enable-background:new 0 0 40 40;" xml:space="preserve">
<style type="text/css">
	.st0{fill:#black;}
	.st1{fill:#FFFFFF;}
</style>
<circle class="st0" cx="20" cy="20" r="20" fill="#de6509"/>
<path class="st1" d="M23,22.1L21.5,24c-2.3-1.3-4.2-3.2-5.5-5.5l1.8-1.5c0.2-0.2,0.4-0.4,0.4-0.7c0.1-0.3,0-0.5-0.1-0.8l-1.7-3.8  c-0.1-0.3-0.3-0.5-0.6-0.6C15.7,11,15.4,11,15.1,11l-3.2,0.8c-0.3,0.1-0.6,0.3-0.7,0.5C11,12.6,11,12.9,11,13.2  c0.6,4,2.4,7.7,5.2,10.5s6.5,4.7,10.5,5.2c0.3,0,0.6,0,0.9-0.2s0.4-0.4,0.5-0.7l0.8-3.2c0.1-0.3,0-0.6-0.1-0.9s-0.3-0.5-0.6-0.6  l-3.8-1.7c-0.3-0.1-0.5-0.1-0.8-0.1C23.4,21.8,23.2,21.9,23,22.1z" fill="#de6509"/>
</svg>